#!OML:ASF E:\Mandelcareful walks\Project 1\Capture day 1\Session 1\Subject1.ASF
:FULLY-SPECIFIED
:DEGREES
601
root -8.26519 14.2656 0.855617 -228.016 82.9101 115.208
lowerback 27.1337 4.02222 -6.07007
upperback 6.88771 3.84217 -4.71986
thorax -7.29059 2.20511 -3.06041
lowerneck -6.1552 24.2247 19.1777
upperneck 7.09314 34.8399 -25.3144
head 11.3203 16.0824 -5.07122
rclavicle -2.8128e-014 5.74488e-014
rhumerus -9.27474 39.8332 -37.0139
rradius 127.895
rwrist -6.23389
rhand 2.35696 -14.5077
rfingers 7.12502
rthumb 27.8459 -42.4641
lclavicle -2.8128e-014 5.74488e-014
lhumerus -15.3815 -54.18 80.1768
lradius 75.9577
lwrist -5.5416
lhand -10.1325 -13.67
lfingers 7.12502
lthumb 15.856 15.7007
rfemur -45.7495 -25.6439 -1.05656
rtibia 67.2737
rfoot -24.9725 -8.37788
rtoes -21.9734
lfemur -58.6866 11.2207 -18.8803
ltibia 70.4076
lfoot -22.2421 0.875973
ltoes -12.9154
602
root -8.25156 14.2843 0.838239 -229.829 83.0599 113.533
lowerback 27.2379 4.19579 -5.5901
upperback 6.7603 4.14618 -5.02184
thorax -7.4312 2.34505 -3.7879
lowerneck -5.75486 23.9309 20.051
upperneck 7.2531 34.4303 -25.2855
head 11.3747 15.9315 -5.30891
rclavicle -2.77305e-014 7.08667e-014
rhumerus -10.6966 40.4871 -37.9874
rradius 127.793
rwrist -6.24785
rhand 1.12221 -14.2368
rfingers 7.12502
rthumb 26.6648 -42.3786
lclavicle -2.77305e-014 7.08667e-014
lhumerus -15.7137 -54.9913 80.0987
lradius 75.9485
lwrist -5.02292
lhand -10.3484 -14.0226
lfingers 7.12502
lthumb 15.6481 15.3646
rfemur -45.4156 -25.3853 -1.15096
rtibia 66.9166
rfoot -24.8104 -8.45901
rtoes -21.6602
lfemur -58.297 11.422 -18.9145
ltibia 70.2606
lfoot -22.3359 1.00384
ltoes -13.0152
603
root -8.24919 14.2959 0.824458 -232.098 83.2041 111.261
lowerback 27.0716 4.29355 -5.40228
upperback 6.75366 4.32245 -5.21903
thorax -7.32472 2.42898 -4.15917
lowerneck -5.65341 23.8268 20.4066
upperneck 7.35831 34.2342 -25.1002
head 11.3706 15.8565 -5.35798
rclavicle -5.68524e-014 1.81888e-014
rhumerus -11.0159 40.937 -38.293
rradius 127.512
rwrist -6.59707
rhand 0.18836 -14.2351
rfingers 7.12502
rthumb 25.7708 -42.5098
lclavicle -5.68524e-014 1.81888e-014
lhumerus -15.6754 -55.1213 79.885
lradius 75.7852
lwrist -4.56695
lhand -10.174 -14.0945
lfingers 7.12502
lthumb 15.8161 15.2794
rfemur -45.4002 -25.1106 -1.19396
rtibia 66.6145
rfoot -24.6443 -8.47587
rtoes -21.4345
lfemur -58.1453 11.6636 -19.0092
ltibia 70.1312
lfoot -22.3346 1.22415
ltoes -13.1689
604
root -8.24849 14.3073 0.814903 -234.084 83.2933 109.295
lowerback 27.3756 4.42831 -5.14141
upperback 6.43303 4.47414 -5.4878
thorax -7.7915 2.48837 -4.71265
lowerneck -5.29052 23.6472 20.9725
upperneck 7.66793 33.9683 -24.7292
head 11.3722 15.7694 -5.42254
rclavicle 5.2827e-014 -1.64991e-014
rhumerus -12.4092 41.4266 -39.2094
rradius 127.523
rwrist -6.80591
rhand -0.246426 -14.3958
rfingers 7.12502
rthumb 25.3543 -42.7303
lclavicle 5.2827e-014 -1.64991e-014
lhumerus -16.4673 -55.5507 80.2708
lradius 75.6425
lwrist -3.95559
lhand -10.3327 -13.9542
lfingers 7.12502
lthumb 15.6633 15.4317
rfemur -45.3697 -24.9189 -1.23457
rtibia 66.3469
rfoot -24.4941 -8.4852
rtoes -21.3445
lfemur -58.0121 11.9062 -19.1143
ltibia 70.0039
lfoot -22.3216 1.0888
ltoes -12.7051
605
root -8.24171 14.3208 0.805508 -235.654 83.3131 107.775
lowerback 27.1855 4.49578 -5.18102
upperback 6.51967 4.57583 -5.56449
thorax -7.59122 2.54295 -4.78557
lowerneck -5.11734 23.5966 21.323
upperneck 7.52303 33.9323 -25.0257
head 11.4187 15.7681 -5.57001
rclavicle 7.78739e-014 -5.32743e-014
rhumerus -12.7835 41.6004 -39.0862
rradius 127.648
rwrist -7.10702
rhand -0.549958 -14.535
rfingers 7.12502
rthumb 25.0635 -42.9104
lclavicle 7.78739e-014 -5.32743e-014
lhumerus -16.2657 -55.4911 80.1662
lradius 75.397
lwrist -3.33158
lhand -10.7584 -13.676
lfingers 7.12502
lthumb 15.2532 15.7417
rfemur -45.2147 -24.842 -1.32928
rtibia 66.1091
rfoot -24.4153 -8.37704
rtoes -21.2457
lfemur -57.8317 12.0849 -19.2371
ltibia 69.8773
lfoot -22.3968 0.874719
ltoes -12.3187
